<?xml version="1.0" standalone="no"?>

<svg  version="1.0" xmlns="http://www.w3.org/2000/svg"

viewBox="0 0 1820.000000 1214.000000"
 preserveAspectRatio="xMidYMid meet">

<g transform="translate(0.000000,1214.000000) scale(0.100000,-0.100000)"
fill="#000000" stroke="none">
<path d="M6740 10064 c-174 -34 -306 -133 -362 -272 -23 -56 -23 -65 -26 -499
-2 -263 1 -443 6 -443 5 0 20 8 33 18 97 75 522 275 653 308 l25 6 1 355 c0
218 -4 369 -10 393 -13 49 -49 93 -95 114 -35 17 -176 29 -225 20z"/>
<path d="M7522 10034 c-61 -23 -150 -108 -181 -174 -25 -54 -25 -60 -28 -322
-3 -307 -14 -282 102 -247 140 42 343 26 466 -37 27 -13 51 -24 54 -24 3 0 5
126 5 280 0 257 -2 284 -21 334 -25 69 -92 144 -155 175 -62 31 -178 38 -242
15z"/>
<path d="M8344 9792 c-51 -24 -104 -77 -130 -128 -18 -37 -19 -70 -22 -734 -2
-683 -2 -696 18 -728 29 -47 77 -64 200 -69 166 -8 286 24 323 86 16 27 17 82
17 693 0 741 1 725 -69 797 -65 68 -123 94 -215 98 -64 3 -89 0 -122 -15z"/>
<path d="M9128 9510 c-46 -14 -90 -51 -109 -94 -17 -39 -19 -78 -19 -644 0
-539 2 -608 16 -638 22 -47 59 -64 139 -64 l66 0 -3 -382 c-4 -381 -4 -383
-29 -453 -36 -100 -95 -195 -191 -309 -230 -273 -257 -325 -274 -528 l-6 -78
-773 0 -772 0 -7 66 c-8 82 -31 127 -136 274 -365 510 -570 1087 -547 1539 l5
106 55 51 c151 140 471 293 872 415 159 49 212 53 270 23 87 -45 108 -132 58
-235 -28 -58 -195 -230 -351 -362 l-82 -69 -49 21 c-85 36 -156 51 -195 40
-53 -15 -86 -60 -86 -119 0 -68 31 -102 118 -131 335 -110 558 -369 622 -719
15 -82 27 -107 65 -130 65 -40 152 -13 182 58 13 32 14 47 3 107 -45 257 -158
476 -335 651 l-93 92 27 20 c50 37 256 235 309 296 69 80 130 203 142 284 30
212 -101 401 -315 457 -107 27 -163 19 -425 -62 -340 -105 -632 -239 -820
-376 -67 -50 -174 -156 -193 -194 -38 -74 -49 -343 -22 -550 26 -196 94 -441
180 -648 92 -222 270 -536 427 -751 32 -45 61 -92 63 -105 7 -35 -4 -59 -26
-59 -74 0 -208 -114 -257 -217 -27 -57 -27 -62 -30 -293 -4 -254 4 -322 43
-401 34 -65 101 -131 170 -165 l60 -29 1035 0 1035 0 57 27 c109 51 201 162
214 261 4 26 9 47 13 46 3 0 79 -37 169 -82 162 -82 163 -83 143 -101 -33 -30
-79 -107 -102 -172 -16 -43 -22 -84 -23 -154 -1 -100 15 -165 59 -245 24 -42
193 -345 254 -454 75 -132 220 -230 377 -253 78 -11 141 -5 259 28 16 4 27 -6
54 -51 19 -31 47 -63 62 -71 63 -32 145 -8 174 52 22 47 19 80 -17 145 l-32
58 51 54 c55 58 80 101 108 187 25 74 25 207 1 280 -22 65 -284 543 -338 615
-48 65 -120 119 -210 158 -68 29 -81 31 -193 31 -88 0 -131 -4 -163 -17 l-44
-17 -294 144 -294 145 0 69 c0 180 -67 310 -197 384 l-53 30 0 82 c0 72 4 91
30 142 16 32 61 95 99 139 133 152 223 278 272 380 86 182 99 284 99 796 0
286 2 338 15 349 28 23 73 114 89 181 13 53 16 126 16 395 0 347 -5 396 -49
483 -57 111 -179 214 -300 251 -68 22 -82 23 -123 10z m-222 -3456 c43 -20 63
-58 67 -121 l2 -48 -135 -2 c-173 -2 -183 -4 -214 -50 -32 -46 -33 -96 -6
-141 32 -52 70 -62 226 -62 l137 0 -6 -45 c-4 -25 -14 -59 -22 -75 -33 -63 21
-60 -1042 -60 -953 0 -969 0 -1001 20 -55 34 -62 65 -61 287 0 223 7 256 58
290 l34 23 964 0 c872 0 968 -2 999 -16z m1209 -751 c90 -30 110 -59 362 -522
48 -88 53 -101 53 -161 0 -49 -6 -75 -23 -104 -12 -22 -26 -41 -32 -42 -5 -2
-30 31 -55 74 -35 58 -54 81 -83 96 -51 25 -100 15 -145 -30 -32 -32 -34 -38
-30 -87 4 -39 15 -69 48 -120 23 -37 40 -71 36 -74 -3 -4 -34 -7 -69 -7 -75 1
-140 27 -186 75 -45 48 -317 540 -325 588 -7 47 1 94 25 142 34 69 43 68 85
-12 42 -79 78 -109 134 -109 67 0 130 63 130 129 0 11 -18 54 -40 96 -22 42
-40 78 -40 80 0 12 112 3 155 -12z"/>
<path d="M7931 4950 l-1014 -5 2 -1395 c1 -1334 2 -1396 19 -1420 10 -14 34
-33 53 -42 32 -17 98 -18 954 -18 856 0 922 1 954 18 19 9 44 30 55 45 21 28
21 30 24 1428 2 1330 1 1399 -15 1397 -10 -2 -474 -5 -1032 -8z"/>
<path d="M11084 4801 c-33 -20 -47 -49 -94 -198 -22 -66 -22 -74 -9 -109 17
-45 69 -84 111 -84 17 0 46 8 65 17 39 18 59 55 102 189 30 91 24 131 -25 173
-42 37 -101 42 -150 12z"/>
<path d="M11435 4436 c-22 -12 -90 -51 -151 -85 -118 -66 -144 -94 -144 -153
0 -45 19 -78 59 -105 54 -37 81 -30 242 58 167 91 199 120 199 180 0 110 -105
164 -205 105z"/>
<path d="M11351 3973 c-48 -24 -76 -88 -62 -141 17 -61 45 -79 167 -107 60
-14 124 -25 142 -25 73 0 122 52 122 130 0 32 -7 48 -32 75 -30 32 -43 38
-151 60 -138 29 -142 30 -186 8z"/>
<path d="M9614 3941 c-11 -5 -33 -23 -47 -41 -48 -56 -30 -152 34 -186 23 -11
65 -16 170 -17 l140 -2 35 37 c27 30 34 46 34 78 0 52 -22 96 -59 115 -34 17
-275 30 -307 16z"/>
<path d="M10791 3683 c-33 -16 -70 -77 -71 -115 0 -9 16 -47 35 -84 l35 -67
-55 -59 c-99 -107 -140 -218 -133 -357 3 -48 13 -109 24 -137 10 -29 86 -171
168 -317 162 -290 207 -348 315 -405 128 -69 281 -84 411 -43 82 26 231 108
289 157 135 116 196 331 142 503 -19 60 -249 484 -322 592 -88 131 -258 219
-419 218 -50 0 -75 -3 -166 -24 -31 -7 -33 -5 -65 55 -18 34 -43 69 -56 77
-35 23 -93 26 -132 6z m512 -383 c30 -11 68 -36 89 -57 20 -21 100 -152 178
-292 153 -275 165 -308 140 -395 -20 -72 -70 -121 -181 -177 -89 -44 -105 -49
-167 -49 -77 0 -154 31 -194 79 -13 15 -88 143 -167 285 -154 276 -165 307
-142 391 6 22 21 53 34 69 l24 29 24 -42 c27 -49 62 -71 114 -71 102 0 156 98
105 193 -24 45 -24 44 -2 50 40 11 95 6 145 -13z"/>
<path d="M9982 3623 c-96 -64 -241 -180 -256 -205 -9 -14 -16 -42 -16 -63 0
-75 51 -125 128 -125 33 0 57 14 173 100 74 56 143 112 153 126 22 30 26 97 7
132 -17 33 -70 62 -111 62 -23 0 -52 -10 -78 -27z"/>
<path d="M10212 3335 c-37 -31 -47 -57 -66 -173 -12 -75 -13 -100 -3 -130 30
-92 167 -110 220 -29 17 26 47 179 47 237 -1 19 -6 45 -14 58 -34 63 -130 82
-184 37z"/>
</g>
</svg>
