<?xml version="1.0" standalone="no"?>
<!DOCTYPE svg PUBLIC "-//W3C//DTD SVG 20010904//EN"
 "http://www.w3.org/TR/2001/REC-SVG-20010904/DTD/svg10.dtd">
<svg version="1.0" xmlns="http://www.w3.org/2000/svg"
 width="105.000000pt" height="100.000000pt" viewBox="0 0 105.000000 100.000000"
 preserveAspectRatio="xMidYMid meet">

<g transform="translate(0.000000,100.000000) scale(0.100000,-0.100000)"
fill="#000000" stroke="none">
<path d="M405 966 c-140 -65 -215 -248 -181 -444 8 -45 26 -107 41 -139 17
-35 27 -73 26 -95 -1 -28 4 -40 25 -57 15 -12 35 -21 46 -21 26 0 68 44 68 73
0 30 -35 67 -64 67 -25 0 -35 17 -67 108 -53 154 -21 336 75 420 50 43 132 67
185 52 74 -20 137 -94 161 -192 9 -33 18 -48 33 -52 35 -9 36 -8 30 32 -32
210 -210 327 -378 248z"/>
<path d="M412 673 c-32 -27 -37 -64 -12 -96 27 -34 78 -37 105 -7 33 37 157
21 271 -35 120 -59 214 -184 214 -285 0 -61 -47 -134 -104 -164 -51 -25 -129
-31 -187 -13 -43 13 -47 13 -71 -8 l-26 -23 50 -16 c105 -34 223 -17 309 44
87 63 108 196 50 314 -74 150 -272 265 -458 266 -24 0 -43 4 -43 8 0 10 -45
32 -64 32 -8 0 -23 -8 -34 -17z"/>
<path d="M98 480 c-74 -78 -106 -177 -88 -272 20 -105 93 -170 214 -191 162
-27 368 75 466 230 16 26 42 55 58 64 58 33 51 111 -12 132 -54 18 -105 -49
-77 -101 24 -46 -90 -166 -218 -230 -70 -35 -81 -37 -166 -37 -83 0 -95 3
-133 28 -84 55 -107 161 -57 263 14 29 39 64 54 77 22 18 28 30 24 50 -7 37
-19 34 -65 -13z"/>
</g>
</svg>
